HIERARCHY
ROOT Bip001_Pelvis
{
  OFFSET 7.937 94.8971 -8.5489
  CHANNELS 6 Xposition Yposition Zposition Zrotation Xrotation Yrotation
  JOINT Bip001_Spine
  {
    OFFSET 1.44608e-005 10.4157 -0.0118244
    CHANNELS 3 Zrotation Xrotation Yrotation
    JOINT Bip001_L_Thigh
    {
      OFFSET 11.2582 -10.4157 0.0118432
      CHANNELS 3 Zrotation Xrotation Yrotation
      JOINT Bip001_L_Calf
      {
        OFFSET -0.720717 -44.8687 0.366937
        CHANNELS 3 Zrotation Xrotation Yrotation
        JOINT Bip001_L_Foot
        {
          OFFSET -0.664439 -41.3745 -3.62995
          CHANNELS 3 Zrotation Xrotation Yrotation
          JOINT Bip001_L_Toe0
          {
            OFFSET 0.0541047 -10.4146 13.4033
            CHANNELS 3 Zrotation Xrotation Yrotation
            End Site
            {
              OFFSET -1.04503e-005 0 7.70137
            }
          }
        }
      }
    }
    JOINT Bip001_R_Thigh
    {
      OFFSET -11.2582 -10.4156 0.0118122
      CHANNELS 3 Zrotation Xrotation Yrotation
      JOINT Bip001_R_Calf
      {
        OFFSET 0.72059 -44.8687 0.36676
        CHANNELS 3 Zrotation Xrotation Yrotation
        JOINT Bip001_R_Foot
        {
          OFFSET 0.664321 -41.3745 -3.62979
          CHANNELS 3 Zrotation Xrotation Yrotation
          JOINT Bip001_R_Toe0
          {
            OFFSET -0.05417 -10.4146 13.4033
            CHANNELS 3 Zrotation Xrotation Yrotation
            End Site
            {
              OFFSET -1.04873e-005 0 7.70137
            }
          }
        }
      }
    }
    JOINT Bip001_Spine1
    {
      OFFSET 1.90638e-005 14.8539 1.10727
      CHANNELS 3 Zrotation Xrotation Yrotation
      JOINT Bip001_Spine2
      {
        OFFSET 2.28934e-005 14.7848 -1.7233
        CHANNELS 3 Zrotation Xrotation Yrotation
        JOINT Bip001_Neck
        {
          OFFSET 2.24514e-005 15.6905 -0.498826
          CHANNELS 3 Zrotation Xrotation Yrotation
          JOINT Bip001_L_Clavicle
          {
            OFFSET 6.17691 -0.000591152 0.00852867
            CHANNELS 3 Zrotation Xrotation Yrotation
            JOINT Bip001_L_UpperArm
            {
              OFFSET 11.773 -0.0611878 0.00197697
              CHANNELS 3 Zrotation Xrotation Yrotation
              JOINT Bip001_L_Forearm
              {
                OFFSET 26.4515 0.0817568 -2.19579
                CHANNELS 3 Zrotation Xrotation Yrotation
                JOINT Bip001_L_Hand
                {
                  OFFSET 32.8677 0.156744 1.67112
                  CHANNELS 3 Zrotation Xrotation Yrotation
                  JOINT Bip001_L_Finger0
                  {
                    OFFSET 6.16268 -2.25226 6.01674
                    CHANNELS 3 Zrotation Xrotation Yrotation
                    End Site
                    {
                      OFFSET 4.30499 -1.46662 0.618148
                    }
                  }
                  JOINT Bip001_L_Finger1
                  {
                    OFFSET 11.2957 -0.718374 -0.201963
                    CHANNELS 3 Zrotation Xrotation Yrotation
                    End Site
                    {
                      OFFSET 6.31952 -0.405163 -0.0802303
                    }
                  }
                }
              }
            }
          }
          JOINT Bip001_R_Clavicle
          {
            OFFSET -6.17691 -0.000574027 0.00851165
            CHANNELS 3 Zrotation Xrotation Yrotation
            JOINT Bip001_R_UpperArm
            {
              OFFSET -11.773 -0.0611516 0.00194365
              CHANNELS 3 Zrotation Xrotation Yrotation
              JOINT Bip001_R_Forearm
              {
                OFFSET -26.4514 0.0822334 -2.19736
                CHANNELS 3 Zrotation Xrotation Yrotation
                JOINT Bip001_R_Hand
                {
                  OFFSET -32.8677 0.156817 1.67144
                  CHANNELS 3 Zrotation Xrotation Yrotation
                  JOINT Bip001_R_Finger0
                  {
                    OFFSET -6.1627 -2.25224 6.0167
                    CHANNELS 3 Zrotation Xrotation Yrotation
                    End Site
                    {
                      OFFSET -4.30499 -1.46662 0.618134
                    }
                  }
                  JOINT Bip001_R_Finger1
                  {
                    OFFSET -11.2958 -0.718344 -0.201994
                    CHANNELS 3 Zrotation Xrotation Yrotation
                    End Site
                    {
                      OFFSET -6.31952 -0.405146 -0.0802475
                    }
                  }
                }
              }
            }
          }
          JOINT Bip001_Head
          {
            OFFSET 1.11782e-005 11.4912 2.09908
            CHANNELS 3 Zrotation Xrotation Yrotation
            End Site
            {
              OFFSET 2.95144e-005 21.2823 -2.83069e-005
            }
          }
        }
      }
    }
  }
}
MOTION
Frames:	15
Frame Time:	0.04
12.3579 94.5874 -7.31948 -0.701674 5.0558 31.8501 -1.51975 -0.0882494 4.15912 -2.40411 -17.9282 -1.90758 1.00941 19.2983 -16.1391 1.62512 -4.75547 -7.13578 0.636466 -10.4661 -1.87028 -9.39061 -0.00831358 -12.9201 1.50365 14.3828 -7.32825 0.0883246 -12.0697 -20.6752 4.03268 -11.868 -1.95343 -2.36095 -0.261793 8.30297 -2.36095 -0.261797 8.303 -3.83017 -2.44493 -3.93802 -27.2951 6.20961 -7.13474 -44.6734 38.5547 5.08737 15.5047 4.45813 -28.2688 -2.42091 0.226447 -0.859925 -3.97569e-015 -1.59028e-015 -0 -5.1684e-015 -1.59028e-015 -0 3.45234 4.28072 19.1486 13.4591 -15.447 45.7351 -53.6975 14.8236 52.9052 -22.7051 11.5607 -12.3149 2.78298e-015 0 -7.95139e-016 3.57812e-015 0 3.18055e-015 0.435892 6.38681 -4.958 
12.5229 94.6022 -7.33456 -0.485514 4.74725 30.1635 -1.44912 -0.041591 3.92206 -2.24507 -17.4528 -1.29258 1.11839 19.3495 -15.8785 1.61008 -5.07943 -6.19849 0.671319 -10.4348 -1.74723 -9.73697 -0.0546691 -13.2526 1.21549 14.2745 -6.56281 0.64096 -11.8867 -19.2341 3.60748 -11.8671 -1.74991 -2.22029 -0.159412 7.84953 -2.22029 -0.159415 7.84955 -3.98348 -2.56244 -3.85709 -27.4368 6.04119 -6.22828 -45.4455 40.8046 6.47819 15.4371 4.37402 -26.495 -5.13602 -0.145078 -0.793806 -2.78299e-015 1.59028e-015 1.59028e-015 -2.38542e-015 0 1.59028e-015 6.35856 5.1803 20.0075 15.4167 -15.915 44.0776 -57.5807 12.1123 62.6103 -22.1765 12.823 -11.6691 -5.06901e-015 0 1.83876e-015 -3.18055e-015 0 3.72721e-015 0.57801 7.1613 -4.95281 
12.6357 94.6141 -7.40056 -0.151874 4.32857 27.8848 -1.40784 0.0457022 3.76639 -2.00971 -16.8398 -1.61504 0.775945 19.3579 -14.9195 1.65484 -5.41387 -4.50741 0.701034 -10.3568 -1.53518 -10.084 -0.289289 -13.9582 0.56735 14.3099 -5.49546 1.72059 -11.6991 -17.2782 2.7126 -11.837 -1.36383 -2.28583 0.0157878 7.54704 -2.28584 0.0157872 7.54708 -3.79179 -2.61283 -4.2482 -27.5821 5.82674 -5.70262 -45.9058 41.9493 7.34247 15.5889 6.59491 -24.4954 -7.71674 -0.357934 -1.25407 3.57812e-015 -3.18055e-015 1.59028e-015 1.98785e-015 0 -0 10.172 6.26896 20.0951 17.6854 -16.1941 41.8733 -61.2255 9.19093 74.0322 -21.7805 11.5008 -10.2271 -4.27387e-015 0 1.88845e-015 -3.27995e-015 3.18056e-015 3.97569e-015 0.860991 7.54385 -5.35405 
12.6812 94.6785 -7.47154 0.230729 3.62876 25.1821 -1.37135 0.221387 3.59777 -1.7778 -15.8648 -1.14651 1.05977 19.0125 -13.9323 1.37173 -5.70811 -3.38861 0.641814 -10.2375 -1.28201 -10.336 -0.490936 -13.6721 0.17347 14.1919 -5.11484 2.50946 -11.2539 -15.3216 2.05342 -11.8464 -0.90424 -2.36709 0.368006 7.21091 -2.3671 0.36801 7.21094 -3.26365 -2.40912 -4.84594 -27.4062 5.43921 -5.69401 -47.0265 42.7967 8.03495 15.4014 8.35588 -22.6042 -8.6901 -0.337272 -1.54606 1.59028e-015 3.18055e-015 7.95139e-016 3.97569e-016 0 1.59028e-015 12.9725 6.87021 19.7487 20.9233 -14.6818 39.6273 -63.2573 6.56841 83.4462 -18.0426 8.66464 -6.7423 7.95139e-016 0 2.98177e-015 5.96354e-016 -3.18056e-015 1.59028e-015 0.968111 7.35545 -5.82509 
12.5333 94.7163 -7.68157 0.398001 3.00504 22.6567 -1.2566 0.384672 3.17819 -1.28643 -15.349 -0.90191 0.847124 18.9947 -12.9143 1.20919 -5.94539 -1.88717 0.672073 -10.1525 -1.0181 -10.5145 -1.17562 -12.647 0.0179961 14.4767 -4.44156 2.75451 -10.9445 -14.177 1.66989 -11.8312 -0.71901 -2.2261 0.707187 6.37442 -2.2261 0.707189 6.37444 -3.65987 -2.12488 -4.65631 -27.2917 5.14452 -5.48837 -47.4354 42.9948 8.25371 15.2311 9.88651 -21.2233 -8.86694 -0.292608 -1.36806 3.97569e-016 9.54166e-015 -0 -3.97569e-016 6.36111e-015 -7.95139e-016 15.8748 7.31472 20.0463 22.0375 -8.41465 35.2451 -57.9602 3.4594 87.3175 -13.1359 9.4267 -5.30357 -2.38542e-015 3.18055e-015 -4.77083e-015 -7.95139e-016 6.36111e-015 -1.59028e-015 1.31885 7.30303 -5.86134 
12.3042 94.7667 -7.84863 0.373452 2.23571 20.3257 -1.07343 0.562391 2.70829 -0.566532 -14.8518 -0.129105 0.661088 19.1491 -11.9177 1.03279 -6.23307 -0.890753 0.675756 -10.1019 -0.889414 -10.4746 -1.62926 -11.298 0.144436 14.4743 -3.43592 2.4722 -10.5327 -13.8091 1.51289 -11.8405 -0.647144 -1.89911 1.07954 5.43618 -1.89911 1.07954 5.43619 -4.56216 -1.77947 -4.26987 -26.9999 4.84804 -5.2319 -47.4523 42.333 8.17527 14.8927 10.3579 -20.8121 -8.56917 -0.178713 -0.615064 -7.95139e-016 1.27222e-014 -0 -1.19271e-015 6.36111e-015 -0 20.0903 7.72843 19.5015 21.7636 -0.401884 30.2786 -53.9129 2.61298 88.8711 -6.93402 8.49454 -4.49222 3.18055e-015 -3.18055e-015 1.59028e-015 4.77083e-015 0 -0 2.02225 6.89387 -5.94925 
12.0756 94.8493 -7.90439 0.502894 1.65999 18.4278 -0.978157 0.742499 2.25378 -0.00761845 -14.1792 1.04199 0.557574 18.8224 -10.9623 0.77428 -6.2592 -0.623192 0.663842 -10.0971 -0.874349 -10.4908 -1.93494 -10.7662 0.0261843 14.3831 -2.82423 2.50931 -10.1638 -12.763 1.26729 -11.8418 -0.444532 -1.76561 1.44996 4.52831 -1.76561 1.44996 4.52831 -4.23102 -1.80837 -4.40731 -27.0686 4.89785 -5.44372 -48.5743 42.0842 8.50167 14.3004 8.02127 -21.0029 -7.24359 -0.192529 0.188483 3.97569e-016 -9.54166e-015 -2.38542e-015 -1.76556e-031 -6.36111e-015 -1.59028e-015 23.7801 8.60632 18.7518 22.5037 7.0156 24.5364 -49.8436 2.91285 89.1236 0.429766 6.40327 -5.85549 -1.59028e-015 -3.18055e-015 3.18055e-015 -2.38542e-015 -3.18056e-015 6.36111e-015 1.43946 6.8896 -5.82594 
11.8168 94.9053 -8.03332 0.627139 1.06818 16.6804 -0.889285 0.961782 1.80877 0.57341 -13.6173 2.11035 0.280321 18.591 -10.116 0.60998 -6.26394 -0.312612 0.664504 -10.076 -0.814515 -10.4935 -2.3784 -9.48992 0.107318 14.5143 -2.05805 2.34578 -9.92995 -12.641 1.06824 -11.8166 -0.418012 -1.62735 1.8976 3.63965 -1.62735 1.8976 3.63966 -4.15762 -1.41365 -4.48007 -27.231 4.80294 -6.3302 -49.3205 42.993 9.51767 14.1381 3.8202 -22.5019 -6.02204 -0.25643 0.824777 1.76556e-031 6.36111e-015 -1.59028e-015 8.82782e-032 6.36111e-015 -7.95139e-016 26.5091 8.76843 18.1934 26.037 13.63 17.9038 -38.4707 4.76229 87.5043 5.23903 6.02452 -12.11 -7.95139e-016 -3.18055e-015 -0 -7.95139e-016 -1.59028e-015 -0 1.28816 6.20528 -5.85111 
11.5973 94.9472 -8.16483 0.771252 0.501811 14.9871 -0.780596 1.10035 1.36345 1.01391 -12.9694 3.2829 0.111555 18.3652 -9.17897 0.399722 -6.27724 -0.299513 0.670594 -10.0599 -0.745381 -10.5716 -2.77151 -8.59733 0.0563524 14.7382 -1.04102 2.32841 -9.73285 -12.3738 0.852837 -11.7872 -0.40035 -1.44645 2.18326 2.74808 -1.44645 2.18326 2.74808 -4.46879 -0.783865 -4.42149 -27.0339 4.23474 -6.43698 -49.5903 43.6859 9.7649 14.4264 2.16766 -23.9529 -4.88133 -0.318801 0.203564 -1.59028e-015 0 1.59028e-015 -7.95139e-016 3.18056e-015 -0 30.2273 9.1008 18.4688 30.5895 16.0023 8.95053 -33.0355 6.05596 84.1283 12.9771 3.36227 -17.4121 9.54166e-015 -6.36111e-015 3.18055e-015 9.54166e-015 -6.36111e-015 -0 1.12821 5.57242 -5.86901 
11.3767 94.9853 -8.38729 0.740419 0.356907 12.7116 -0.704838 1.14967 1.13405 1.48911 -12.6774 4.51875 -0.0225231 18.1927 -8.36082 0.204474 -6.34883 0.120769 0.670768 -10.0322 -0.671583 -10.5514 -3.75835 -6.86805 0.11248 15.0066 -0.604716 2.39518 -9.42645 -12.1162 0.583352 -11.7381 -0.345722 -1.34477 2.28584 2.28812 -1.34477 2.28584 2.28811 -4.38038 -0.60385 -4.46785 -26.8578 4.10632 -6.71401 -49.1982 42.2241 8.6116 14.6696 3.01912 -24.4757 -3.37714 -0.127777 -1.45588 0 3.18055e-015 -0 -1.59028e-015 6.36111e-015 1.59028e-015 31.7914 9.19838 18.0208 34.8318 24.1642 3.14333 -24.6837 2.89226 74.0582 15.4404 1.85907 -20.9776 9.54166e-015 6.36111e-015 -1.59028e-015 6.36111e-015 6.36111e-015 -1.59028e-015 0.753794 5.19894 -5.79809 
11.3265 95.0333 -8.43041 0.883447 -0.398972 11.6411 -0.698014 1.28935 0.725438 1.65318 -11.8162 3.91842 -0.348731 17.9161 -6.75624 0.0607163 -6.32121 0.600739 0.661513 -10.0255 -0.638484 -10.621 -3.45825 -7.11248 0.0179471 14.7863 0.58704 2.50072 -9.11882 -11.5393 0.387814 -11.7193 -0.255821 -1.36596 2.56988 1.47067 -1.36596 2.56988 1.47067 -3.51869 -0.144305 -4.74216 -26.8363 3.56117 -6.98979 -49.9758 43.0845 8.84227 14.7277 0.820602 -25.8712 -1.81135 -0.00119161 -1.19202 1.59028e-015 0 -3.18055e-015 -3.53113e-031 -6.36111e-015 -3.18055e-015 32.5516 8.9656 17.5173 39.9313 31.3542 -2.18558 -12.3901 -4.72706 65.0079 12.9817 1.28217 -24.3846 -4.41391e-032 3.18055e-015 7.95139e-016 0 1.59028e-015 -0 0.107922 4.96694 -5.66599 
11.2225 95.1017 -8.59983 0.861045 -0.720425 9.209 -0.656584 1.31096 0.606355 2.06589 -11.1301 3.59153 -1.01043 17.5115 -4.38572 -0.0447788 -6.33208 1.14939 0.644175 -9.99976 -0.565884 -10.6428 -4.06049 -5.7529 0.125175 14.7437 1.01299 2.61345 -8.6706 -10.9379 0.147705 -11.7139 -0.0869243 -1.32129 2.6148 1.23049 -1.3213 2.61481 1.23049 -3.25977 0.356994 -4.76183 -26.5714 3.13028 -7.41062 -49.9345 42.0071 8.19117 14.5908 0.885609 -26.7899 -1.05714 0.0476588 -1.59054 -1.59028e-015 9.54166e-015 -1.59028e-015 -1.59028e-015 6.36111e-015 -3.18055e-015 33.2278 8.79271 17.8391 44.8994 35.2657 -6.89928 -4.76642 -13.0213 57.7987 10.5018 1.2308 -28.9227 -1.59028e-015 3.18055e-015 7.95139e-016 -4.77083e-015 3.18056e-015 3.18055e-015 -0.1245 4.68101 -5.57108 
11.1466 95.1641 -8.634 0.781818 -0.944275 7.20314 -0.557815 1.31374 0.382985 2.43563 -10.4938 5.0681 -1.09676 17.2132 -3.31237 -0.237292 -6.41563 0.86631 0.655171 -10.0099 -0.597417 -10.631 -4.44069 -6.04783 -0.218394 14.533 2.34772 2.79463 -8.2654 -9.86494 -0.0134526 -11.7112 0.0814109 -1.13994 2.62358 0.780381 -1.13994 2.62358 0.780377 -3.38704 0.719598 -4.44959 -26.5007 2.87263 -7.59775 -49.5925 41.4973 7.21886 14.3435 0.662196 -27.1505 -0.879207 0.0508895 -2.07099 0 9.54166e-015 -0 0 1.27222e-014 -0 33.4654 8.34663 17.7709 49.355 38.999 -10.1518 0.715611 -21.7366 51.5008 8.70545 1.88272 -30.9083 7.95139e-016 -9.54166e-015 -7.95139e-016 1.59028e-015 -9.54167e-015 -1.59028e-015 -0.0225174 4.45917 -5.34787 
11.0235 95.1988 -8.82732 0.464634 -1.30477 5.0395 -0.4185 1.31061 0.235392 2.99181 -10.0321 5.75602 -1.3724 17.3459 -2.03229 -0.370435 -6.65347 1.13732 0.643786 -9.9875 -0.49145 -10.2761 -4.85519 -4.78056 -0.347174 14.3003 2.82065 2.88303 -7.73059 -9.395 -0.142785 -11.7094 0.203977 -0.876755 2.61939 0.4805 -0.876751 2.61938 0.480496 -3.07545 1.04962 -4.26762 -26.9714 2.60029 -7.76836 -49.4094 41.4172 6.55504 13.6779 -0.725251 -27.3604 -1.17502 -0.105063 -2.54192 -1.76556e-031 6.36111e-015 1.59028e-015 -3.18055e-015 6.36111e-015 1.59028e-015 33.2455 8.04877 18.0211 53.0354 41.8654 -12.9703 5.3233 -30.3365 46.716 6.37301 2.01712 -29.6883 -3.47873e-016 6.36111e-015 6.95746e-016 -1.73937e-016 3.18056e-015 7.20594e-016 -0.479744 4.46828 -4.9706 
11.0153 95.265 -8.82242 0.405824 -1.68117 3.16119 -0.359822 1.34522 0.122013 3.14821 -9.18851 6.51801 -1.43921 16.922 -1.11776 -0.508035 -6.69824 1.40151 0.632429 -9.98217 -0.466385 -10.2557 -4.93595 -4.66238 -0.57502 13.9351 3.32158 3.20354 -7.27326 -8.15595 -0.327379 -11.7195 0.413345 -0.783341 2.68958 0.250958 -0.783346 2.6896 0.25096 -2.76839 1.06471 -4.08796 -27.2771 2.68963 -8.055 -49.052 40.2407 5.50285 13.019 -0.31398 -27.283 -1.37634 -0.383815 -2.32451 -3.18055e-015 -6.36111e-015 -1.59028e-015 0 0 -3.18055e-015 33.3634 8.01631 17.8743 55.0517 42.6377 -14.6001 9.39415 -37.4288 43.3933 4.00397 2.08131 -28.0205 3.97569e-016 -9.54166e-015 7.95139e-016 7.95139e-016 -9.54167e-015 1.59028e-015 -0.670137 4.4956 -4.65318 
